<!-- Generated by IcoMoon.io -->
<svg version="1.1" xmlns="http://www.w3.org/2000/svg" width="562" height="512" viewBox="0 0 562 512">
<title></title>
<g id="icomoon-ignore">
</g>
<path fill="#000" d="M0 80.314c117.564-90.067 276.079-80.314 276.079-80.314s-31.463 155.472-276.079 200.785c-0.12 0.020-0.236-120.29 0-120.471z"></path>
<path fill="#000" d="M346.353 5.019c-1.622-0.201-23.331 84.355-105.412 155.608-0.030 0.025 1.009-0.201 1.852-0.427 56.571-15.038 279.742-16.951 319.403 15.486 0.155 0.131 0-95.373 0-95.373s-66.771-56.642-215.843-75.294z"></path>
<path fill="#000" d="M0 266.039c402.101-79.089 512-30.118 512-30.118s1.461-0.813 0 0c-79.837 44.564-416.442 102.315-481.882 215.843-0.372 0.642-30.117-20.079-30.117-20.079s-0.572-165.531 0-165.647z"></path>
<path fill="#000" d="M100.392 481.882c54.618-83.873 398.205-149.524 461.804-195.764 0.341-0.246 0.467 150.317 0 150.588-216.425 126.68-469.373 56.802-461.804 45.176z"></path>
</svg>
