<!-- Generated by IcoMoon.io -->
<svg version="1.1" xmlns="http://www.w3.org/2000/svg" width="512" height="512" viewBox="0 0 512 512">
<title></title>
<g id="icomoon-ignore">
</g>
<path fill="#808080" d="M256 0c141.29 0 256 114.71 256 256s-114.71 256-256 256c-141.29 0-256-114.71-256-256s114.71-256 256-256zM420.65 433.583l-103.4-121.199c0 0 74.961-0.165 75.582-0.178 8.32 0.634 16.818-2.224 23.674-7.977 14.764-12.344 16.747-34.306 4.391-49.121l-160.619-188.487c-1.533-2.021-3.269-3.928-5.297-5.646-0.247-0.183-0.532-0.323-0.767-0.519-0.076-0.064-0.171-0.114-0.247-0.159-1.768-1.368-3.586-2.566-5.494-3.567-0.114-0.057-0.247-0.089-0.373-0.133-1.908-0.957-3.859-1.749-5.843-2.319-0.361-0.083-0.754-0.159-1.128-0.247-1.755-0.4-3.529-0.818-5.322-0.951-1.090-0.133-2.193-0.051-3.27-0.051-1.090 0-2.154-0.088-3.257 0.051-1.781 0.133-3.542 0.551-5.323 0.634-0.373 0.088-0.728 0.165-1.102 0.247-2.015 0.57-3.961 1.362-5.855 2.319-0.133 0.057-0.247 0.089-0.361 0-1.933 0.989-3.79 2.199-5.507 3.568-0.114 0.057-0.158 0.107-0.234 0.158-0.247 0.196-0.532 0.336-0.78 0.634-2.027 1.717-3.764 3.611-5.322 5.607l-149.796 175.953h91.633l85.904-100.694 86.202 101.176-76.697 0.051c-0.285 0-0.558 0.082-0.843 0-1.819 0-3.662 0.164-5.481 0.45-0.52 0.107-1.052 0.221-1.546 0.342-1.648 0.336-3.295 0.836-4.911 1.267-0.596 0.215-1.153 0.456-1.685 0.741-1.471 0.621-2.884 1.35-4.259 2.231-0.608 0.393-1.223 0.83-1.806 1.267-0.741 0.513-1.508 0.906-2.192 1.451-0.482 0.425-0.868 0.932-1.337 1.401-0.558 0.519-1.103 1.089-1.635 1.901-1.052 1.083-2.015 2.224-2.87 3.364-0.431 0.666-0.83 1.299-1.236 1.952-0.805 1.255-1.495 2.509-2.104 3.802-0.373 0.798-0.678 1.616-0.988 2.433-0.456 1.261-0.919 2.522-1.21 3.834-0.235 0.918-0.4 1.907-0.533 3.168-0.221 1.28-0.374 2.554-0.443 3.84-0.038 0.469-0.146 0.868-0.146 1.324 0 0.634 0 1.267 0 1.901 0.076 1.267 0 2.535 0.634 3.53 0.158 1.267 0.633 2.534 0.633 3.516 0.247 1.268 0.634 1.901 0.634 3.169 0.456 1.267 1.267 2.534 1.267 3.726 0.387 0.633 0.634 1.267 1.268 2.217 0.779 1.268 1.901 2.535 2.534 3.802 0.285 0.634 0.634 0.634 0.634 1.065l114.083 133.726h91.62v-0.57h0.526z"></path>
</svg>
