<?xml version="1.0" encoding="utf-8"?>
<!-- Generator: Adobe Illustrator 22.1.0, SVG Export Plug-In . SVG Version: 6.00 Build 0)  -->
<svg version="1.1" id="Layer_1" xmlns="http://www.w3.org/2000/svg" xmlns:xlink="http://www.w3.org/1999/xlink" x="0px" y="0px"
	 viewBox="0 0 72 72" style="enable-background:new 0 0 72 72;" xml:space="preserve">
<style type="text/css">
	.st0{fill:#B9BABC;}
</style>
<path class="st0" d="M21.2,3.1c3.9-1.8,8.2-2.9,12.7-3.1v30.9h0c0,0.2,0,0.4,0,0.6v0.9h0c0,4.3-1.6,7.4-4,9.9
	c-1.9-4-3.1-8.9-3.1-15.3h0c0-6.7-1-12.2-2.5-16.7C23.4,7.6,22.4,5.3,21.2,3.1 M1.9,47.6C0.6,44,0,40,0,36C0,22.8,7,11.4,17.5,5.1
	c1.1,2,2,4.1,2.8,6.6c1.4,4.2,2.3,9.2,2.3,15.4h0c0,0.1,0,0.3,0,0.4c0-0.1,0,0.1,0,1.8h0c-0.1,8.5-7.1,11.8-14,15
	C6.3,45.3,4,46.4,1.9,47.6 M23.3,69.7c-4-1.5-7.6-3.7-10.8-6.4c2.1-5,6.8-8.1,11.5-11.2c0.8-0.5,1.7-1.1,2.5-1.6
	c-0.8-1.1-1.6-2.3-2.3-3.5c-0.8,0.6-1.6,1.1-2.5,1.6c-4.8,3.2-9.7,6.4-12.4,11.6C7,57.6,5,54.7,3.5,51.6c2.1-1.3,4.5-2.4,6.9-3.5
	c5.2-2.4,10.6-4.9,13.7-9.4c1.9,6.8,5.3,11.5,8.9,15.7C28.9,58.9,25.1,63.3,23.3,69.7 M59.3,63.4c-3.3,2.8-7.1,5-11.3,6.5
	c-1.3-5.5-4.2-9.5-7.6-13.4c-0.9,1.1-1.9,2.1-2.8,3.2c2.9,3.4,5.3,6.8,6.3,11.4c-2.6,0.6-5.3,0.9-8,0.9c-3,0-5.9-0.4-8.7-1
	c1.5-5.7,5.1-9.8,8.9-14.1c1.8-2.1,3.7-4.2,5.4-6.6c-1.1-0.9-2.2-1.8-3.2-2.7c-0.9,1.2-1.8,2.4-2.8,3.5c-1.3-1.5-2.5-3.1-3.6-4.9
	c1.8-1.7,3.3-3.6,4.4-5.8c2.6,4.3,6.8,7.2,11.1,10.2C52.6,54,57.6,57.5,59.3,63.4 M68.7,51c-1.5,3.4-3.6,6.4-6.1,9.1
	c-2.5-5.9-7.6-9.5-12.7-13.1c-1.5-1-3-2.1-4.4-3.2c0.9-1.9,1.8-4.1,2.4-6.4c3,4.4,8.2,6.9,13.3,9.4C63.9,48.2,66.6,49.5,68.7,51
	 M54.3,4.9C64.9,11.2,72,22.8,72,36c0,3.9-0.6,7.6-1.7,11.1c-2.2-1.4-4.7-2.7-7.2-3.9c-6.8-3.3-13.8-6.8-13.7-15.4v-1.5h0
	c0.1-6.1,0.9-11,2.3-15.1C52.4,8.9,53.3,6.8,54.3,4.9 M38.1,0c4.4,0.3,8.6,1.3,12.5,3c-1.1,2-2.1,4.3-2.9,6.9
	c-1.8,5.6-2.4,11.2-2.5,17c-0.1,5.7-1.3,10.3-2.9,14.1c-2.5-2.6-4.2-5.8-4.2-10.1h0L38.1,0z"/>
</svg>

