<?xml version="1.0" encoding="UTF-8" standalone="no"?><!DOCTYPE svg PUBLIC "-//W3C//DTD SVG 1.1//EN" "http://www.w3.org/Graphics/SVG/1.1/DTD/svg11.dtd"><svg width="437" height="512" viewBox="0 0 437 512" version="1.1" xmlns="http://www.w3.org/2000/svg" xmlns:xlink="http://www.w3.org/1999/xlink" xml:space="preserve" xmlns:serif="http://www.serif.com/" style="fill-rule:evenodd;clip-rule:evenodd;stroke-linejoin:round;stroke-miterlimit:2;"><path d="M435.155,9.774c-3.093,-7.043 -13.735,-12.544 -20.756,-8.274c-6.642,4.036 -8.26,15.241 -11.164,21.842c-9.97,22.632 -21.256,44.686 -30.365,67.683c-7.3,18.437 -14.925,39.842 -32.177,51.395c-11.837,7.927 -34.405,10.668 -43.315,-3.716c-7.363,-11.881 -32.457,-47.95 -37.502,-59.309c-5.046,-11.354 -16.702,-40.888 -18.601,-49.068c-1.005,-4.347 -3.436,-9.487 -5.632,-13.735c-0.135,-4.108 -1.835,-6.872 -4.4,-8.599c-2.048,-3.612 -9.745,-4.599 -13.217,-4.211c-5.564,0.622 -11.214,3.801 -14.316,8.432c-12.779,10.898 -18.077,27.767 -30.076,38.842c-11.783,10.871 -24.295,20.917 -36.1,31.766c-11.336,10.412 -20.702,22.736 -32.02,33.088c-10.727,9.808 -22.523,18.592 -33.494,28.151c-8.161,7.106 -15.628,15.967 -24.218,22.469c-10.204,7.729 -21.306,15.435 -29.346,25.544c-5.248,6.597 -17.59,26.924 -4.347,30.464c8.96,2.394 20.535,-5.145 28.557,-8.175c13.212,-4.992 25.296,-12.278 37.484,-19.317c6.327,-3.653 12.152,-8.301 18.785,-11.417c7.391,-3.477 15.552,-4.5 23.114,-7.494c5.749,-2.278 12.378,-6.322 18.028,-7.481c9.523,-1.948 18.992,0.775 28.461,-0.338c6.525,-0.771 23.209,-12.094 28.092,-1.971c3.342,6.931 -7.318,14.754 -11.34,18.821c-46.291,46.819 -84.831,101.51 -127.266,151.746c-12.783,15.133 -25.617,30.379 -36.479,46.977c-2.863,4.374 -5.993,8.549 -8.77,12.995c-5.19,8.301 -15.507,21.829 -12.098,32.412c1.122,3.485 2.849,4.644 4.82,4.41c5.181,-0.6 12.084,-10.773 14.339,-13.483c18.893,-22.721 35.451,-47.738 55.115,-69.783c12.793,-14.344 24.395,-29.733 37.805,-43.527c9.695,-9.974 17.725,-21.517 27.528,-31.149c10.168,-9.983 18.745,-20.106 27.465,-31.42c4.095,-5.307 8.446,-10.204 12.987,-15.114c5.582,-6.025 9.167,-13.532 14.763,-19.584c5.622,-6.087 12.305,-11.092 18.104,-17.008c6.015,-6.137 11.787,-12.847 19.159,-17.392c5.722,-3.526 12.72,-5.05 15.773,-11.714c1.998,-4.361 4.829,-13.934 1.84,-18.267c-3.77,-5.47 -13.798,-3.278 -19.466,-3.72c-9.704,-0.758 -19.448,-1.38 -29.188,-1.127c-22.947,0.599 -45.894,2.895 -68.421,7.368c-6.061,1.204 -32.322,10.673 -30.324,-1.209c1.023,-6.074 13.847,-12.179 18.176,-15.759c10.984,-9.091 19.457,-20.35 29.643,-30.221c10.317,-9.992 21.68,-18.825 32.759,-27.929c10.114,-8.311 19.475,-17.469 28.827,-26.618c5.397,11.801 10.912,23.552 16.864,35.081c11.697,22.645 25.558,44.186 41.272,64.251c11.138,14.222 47.779,39.699 39.234,61.428c-0.063,0.163 -0.131,0.325 -0.203,0.487c-4.094,9.618 -10.916,17.775 -15.804,26.969c-11.733,22.086 -22.523,44.718 -33.598,67.142c-12.337,24.985 -26.807,48.658 -34.621,75.64c-5.713,19.719 -11.494,39.419 -17.166,59.147c-5.037,17.518 -13.965,37.502 -14.493,55.818c-0.13,4.469 -1.646,16.54 2.828,19.399c3.864,2.471 7.074,-3.486 8.535,-5.97c6.475,-11.025 16.048,-23.561 19.29,-35.803c2.169,-8.198 5.948,-16.012 7.328,-24.417c1.497,-9.163 3.977,-16.607 7.345,-25.472c3.107,-8.166 4.649,-16.783 9.307,-24.083c6.534,-10.236 11.192,-22.898 15.07,-34.536c3.485,-10.448 4.459,-19.019 9.852,-27.303c6.466,-9.929 11.805,-20.602 17.437,-31.014c7.215,-13.338 16.138,-28.245 17.825,-30.536c6.213,-8.45 10.434,-19.015 15.087,-28.367c19.601,-32.65 34.364,-65.021 52.252,-98.632c10.137,-19.061 21.342,-37.548 30.59,-57.073c7.436,-15.682 10.416,-33.944 19.421,-48.739c4.901,-8.058 13.46,-19.813 9.122,-29.693" style="fill:#231f20;"/></svg>
