<?xml version="1.0" encoding="UTF-8" standalone="no"?><!DOCTYPE svg PUBLIC "-//W3C//DTD SVG 1.1//EN" "http://www.w3.org/Graphics/SVG/1.1/DTD/svg11.dtd"><svg width="512" height="512" viewBox="0 0 512 512" version="1.1" xmlns="http://www.w3.org/2000/svg" xmlns:xlink="http://www.w3.org/1999/xlink" xml:space="preserve" xmlns:serif="http://www.serif.com/" style="fill-rule:evenodd;clip-rule:evenodd;stroke-linejoin:round;stroke-miterlimit:2;"><g id="Layer-1" serif:id="Layer 1"><path d="M256.237,3.653c-139.512,-0.146 -252.434,112.566 -252.579,252.11c-0.146,139.51 112.566,252.433 252.108,252.58c139.515,0.146 252.416,-112.545 252.582,-252.109c0.165,-139.494 -112.566,-252.436 -252.111,-252.581m255.384,252.345c1.758,140.022 -115.532,256.391 -256.379,256.001c-139.812,-0.388 -255.791,-116.323 -255.24,-257.089c0.548,-139.831 116.794,-255.879 257.847,-254.904c138.995,0.959 255.48,116.23 253.772,255.992" style="fill:#2c2929;fill-rule:nonzero;"/><path d="M395.889,397.389c-1.792,-0.126 -2.625,-1.644 -3.71,-2.728c-30.742,-30.704 -61.462,-61.429 -92.185,-92.152c-13.576,-13.575 -27.227,-27.076 -40.66,-40.79c-2.576,-2.629 -3.827,-2.868 -6.594,-0.087c-44.09,44.302 -88.308,88.475 -132.553,132.622c-1.348,1.344 -2.899,4.648 -4.994,2.55c-2.091,-2.096 1.213,-3.647 2.558,-4.994c44.147,-44.245 88.32,-88.464 132.622,-132.553c2.79,-2.777 2.495,-4.005 -0.1,-6.589c-44.178,-44.009 -88.258,-88.117 -132.292,-132.271c-1.408,-1.412 -5.008,-2.951 -2.691,-5.28c1.975,-1.984 3.614,1.341 4.985,2.708c44.241,44.15 88.453,88.331 132.564,132.611c2.494,2.504 3.679,2.672 6.276,0.064c44.204,-44.392 88.521,-88.67 132.856,-132.932c1.3,-1.297 2.838,-4.299 4.716,-2.527c2.341,2.209 -0.978,3.684 -2.29,5c-44.138,44.241 -88.306,88.453 -132.599,132.537c-2.862,2.849 -2.637,4.192 0.076,6.894c44.182,44.007 88.251,88.126 132.339,132.225c1.017,1.017 2.16,1.984 2.889,3.189c0.634,1.049 0.536,2.291 -1.213,2.503" style="fill:#242020;fill-rule:nonzero;"/><path d="M413.506,219.187c-0.579,1.334 -0.936,1.881 -1.059,2.477c-4.078,19.733 -8.106,39.478 -12.227,59.203c-0.594,2.834 0.708,3.243 3.028,3.215c5.96,-0.075 11.933,-0.244 17.879,0.05c4.284,0.215 5.436,-0.805 4.466,-5.332c-4.182,-19.494 -7.962,-39.075 -12.087,-59.613m-29.192,95.858c2.353,-11.878 4.679,-23.762 7.062,-35.633c5.392,-26.872 10.812,-53.739 16.229,-80.606c0.253,-1.248 0.696,-2.465 0.87,-3.722c0.403,-2.91 1.914,-4.99 4.894,-4.841c2.973,0.148 3.955,2.463 4.512,5.285c4.111,20.846 8.407,41.654 12.584,62.488c3.675,18.335 7.171,36.708 10.995,55.012c0.726,3.471 0.598,6.234 -3.045,7.067c-3.792,0.87 -5.098,-1.88 -5.703,-5.202c-1.025,-5.641 -2.502,-11.209 -3.318,-16.878c-0.519,-3.611 -1.76,-5.165 -5.655,-5.007c-7.238,0.294 -14.499,0.198 -21.744,0.032c-3.11,-0.072 -4.425,0.816 -4.897,4.146c-0.895,6.297 -2.408,12.512 -3.776,18.737c-0.61,2.772 -2.234,4.779 -5.36,4.281c-2.731,-0.435 -3.883,-2.369 -3.648,-5.159" style="fill:#2c2929;fill-rule:nonzero;"/><path d="M256.274,191.985c-17.29,-0.035 -28.257,-10.565 -28.792,-27.639c-0.097,-3.067 -0.072,-6.094 4.116,-6.287c3.836,-0.177 4.054,2.588 4.438,5.434c2.247,16.7 13.661,23.849 29.211,18.38c11.243,-3.954 15.758,-17.093 10.7,-31.142c-2.393,-6.65 -6.538,-12.048 -12.093,-16.307c-6.274,-4.809 -12.772,-9.323 -19.044,-14.135c-14.808,-11.36 -19.622,-27.268 -13.147,-42.982c5.042,-12.241 18.295,-18.049 32.853,-14.398c12.007,3.011 19.357,14.086 17.911,27.021c-0.309,2.762 -0.646,5.749 -4.375,5.652c-3.922,-0.102 -4.273,-2.91 -4.401,-6.154c-0.621,-15.706 -11.049,-22.903 -25.112,-17.485c-8.646,3.331 -13.02,15.35 -9.635,26.202c2.153,6.902 6.908,11.77 12.394,16.01c5.265,4.07 10.823,7.763 16.081,11.84c10.229,7.934 17.09,17.822 18.917,31.083c2.746,19.93 -9.933,34.947 -30.022,34.907" style="fill:#2c2929;fill-rule:nonzero;"/><path d="M98.211,241.107c5.927,-14.856 11.325,-28.376 16.712,-41.903c0.55,-1.38 1.009,-2.794 1.558,-4.173c1.165,-2.932 2.573,-5.721 6.484,-4.181c3.921,1.541 3.076,4.726 1.97,7.551c-6.424,16.397 -12.888,32.782 -19.512,49.1c-1.874,4.618 -2.857,9.208 -2.804,14.229c0.181,17.063 0.064,34.129 0.07,51.194c0.001,3.255 0.263,7.073 -4.202,7.193c-4.782,0.127 -4.862,-3.759 -4.859,-7.329c0.016,-15.358 -0.339,-30.727 0.142,-46.071c0.272,-8.749 -1.476,-16.742 -4.801,-24.718c-5.878,-14.102 -11.368,-28.367 -16.974,-42.582c-1.238,-3.137 -3.121,-6.751 1.587,-8.538c4.772,-1.81 5.637,2.282 6.873,5.392c5.725,14.394 11.411,28.803 17.756,44.836" style="fill:#2c2929;fill-rule:nonzero;"/></g></svg>
